<?xml version="1.0" encoding="UTF-8" standalone="no"?>
<svg
   viewBox="0 0 652.93335 442.56"
   height="442.56"
   width="652.93335"
   xml:space="preserve"
   id="svg2"
   version="1.1"
   sodipodi:docname="Agilica_Final.svg"
   inkscape:version="1.3.2 (091e20e, 2023-11-25, custom)"
   xmlns:inkscape="http://www.inkscape.org/namespaces/inkscape"
   xmlns:sodipodi="http://sodipodi.sourceforge.net/DTD/sodipodi-0.dtd"
   xmlns="http://www.w3.org/2000/svg"
   xmlns:svg="http://www.w3.org/2000/svg"
   xmlns:rdf="http://www.w3.org/1999/02/22-rdf-syntax-ns#"
   xmlns:cc="http://creativecommons.org/ns#"
   xmlns:dc="http://purl.org/dc/elements/1.1/"><sodipodi:namedview
     id="namedview1"
     pagecolor="#505050"
     bordercolor="#eeeeee"
     borderopacity="1"
     inkscape:showpageshadow="0"
     inkscape:pageopacity="0"
     inkscape:pagecheckerboard="0"
     inkscape:deskcolor="#505050"
     showgrid="false"
     inkscape:zoom="2.6911605"
     inkscape:cx="326.43909"
     inkscape:cy="221.28"
     inkscape:window-width="2560"
     inkscape:window-height="1387"
     inkscape:window-x="-8"
     inkscape:window-y="-8"
     inkscape:window-maximized="1"
     inkscape:current-layer="g10" /><metadata
     id="metadata8"><rdf:RDF><cc:Work
         rdf:about=""><dc:format>image/svg+xml</dc:format><dc:type
           rdf:resource="http://purl.org/dc/dcmitype/StillImage" /></cc:Work></rdf:RDF></metadata><defs
     id="defs6"><clipPath
       id="clipPath22"
       clipPathUnits="userSpaceOnUse"><path
         id="path20"
         d="M 0,331.92 H 489.7 V 0 H 0 Z" /></clipPath></defs><g
     transform="matrix(1.3333333,0,0,-1.3333333,0,442.56)"
     id="g10"><text
   id="text14"
   style="font-variant:normal;font-weight:500;font-stretch:normal;font-size:45.17430115px;font-family:Gotham;-inkscape-font-specification:Gotham-Medium;writing-mode:lr-tb;fill:#ffffff;fill-opacity:1;fill-rule:nonzero;stroke:none"
   transform="matrix(1,0,0,-1,103.6367,93.0459)"><tspan
     id="tspan12"
     y="0"
     x="0 46.394005 94.459465 125.04247 164.75067 190.81624 234.9967"
     style="fill:#ffffff">AGILICA</tspan></text>
<g
   id="g16"
   style="fill:#ffffff"><g
     clip-path="url(#clipPath22)"
     id="g18"
     style="fill:#ffffff"><g
       transform="translate(289.0416,211.4704)"
       id="g24"
       style="fill:#ffffff"><path
         id="path26"
         style="fill:#ffffff;fill-opacity:1;fill-rule:nonzero;stroke:none"
         d="m 0,0 c -0.584,-1.626 -1.165,-3.294 -1.754,-4.985 -6.432,-18.467 -13.724,-39.397 -34.785,-39.397 -8.726,0 -15.744,4.437 -21.208,10.299 8.089,9.157 13.938,21.32 18.518,30.846 0.74,1.539 1.446,3.009 2.124,4.385 13.254,26.924 25.824,30.635 37.431,30.635 7.274,0 15.259,-3.028 19.289,-4.788 C 15.057,24.036 5.86,16.36 0,0 m 16.054,20.144 c 0.586,0.565 1.148,1.071 1.692,1.54 2.93,2.448 6.019,4.075 7.63,4.835 l 1.128,0.502 -2.832,1.472 c -0.499,0.259 -12.381,6.364 -23.346,6.364 -17.232,0 -28.877,-9.373 -40.189,-32.352 -0.682,-1.383 -1.393,-2.862 -2.135,-4.409 -4.434,-9.22 -10.102,-21.011 -17.803,-29.829 -9.117,11.13 -13.26,25.608 -13.325,25.845 l -2.963,-0.824 c 0.115,-0.413 2.881,-10.23 9.061,-20.206 1.619,-2.615 3.322,-4.989 5.102,-7.118 -6.01,-6.136 -13.186,-10.346 -21.854,-10.346 -22.704,0 -28.017,32.423 -28.07,32.75 l -3.036,-0.471 c 0.053,-0.353 5.767,-35.354 31.106,-35.354 9.616,0 17.442,4.535 23.912,11.101 6.901,-7.3 14.826,-11.101 23.329,-11.101 23.245,0 31.255,22.988 37.689,41.461 0.586,1.682 1.163,3.341 1.745,4.958 3.62,10.109 8.621,16.705 12.802,20.827 0.117,0.121 0.238,0.237 0.357,0.355" /></g></g></g></g></svg>
